ply
format ascii 1.0
comment VCGLIB generated
element vertex 372
property float x
property float y
property float z
element face 676
property list uchar int vertex_indices
end_header
-23.9771 -12.5967 -48.6302 
-20.3969 -12.6221 -49.3946 
-20.1454 -12.8471 -46.9207 
-16.577 -5.79271 -47.752 
-23.537 -19.8194 -46.9595 
-20.0021 -22.5481 -46.1728 
-16.7678 -19.7202 -46.6792 
-16.744 -23.4587 -44.0892 
-23.7861 -16.4203 -48.23 
-27.8898 -16.514 -47.1333 
-20.3368 -20.0101 -47.1924 
-13.5291 -16.4057 -47.2592 
-27.4962 -12.7271 -48.132 
-9.70415 -12.7184 -46.5616 
-12.9288 -9.49161 -47.8216 
-27.4203 -9.06781 -48.2815 
-23.7832 -9.68957 -49.9301 
-20.0216 -5.16973 -48.6556 
-20.053 -9.16146 -48.9996 
-9.49368 -9.52495 -46.7533 
-6.36945 -6.10493 -43.2176 
-7.95856 -9.30188 -45.4062 
-23.9447 -2.09943 -47.6824 
-23.8357 -5.08242 -47.4327 
-20.3294 -1.74348 -47.1489 
-12.977 -6.09092 -47.7056 
-13.0693 -2.46998 -46.6436 
-10.3054 -6.50416 -46.747 
-20.0325 -25.8383 -43.1156 
-16.351 -26.986 -41.0372 
-12.915 -23.2406 -43.644 
-11.873 -19.8089 -44.5015 
-10.2778 -22.4024 -42.7922 
-9.20481 -16.5387 -44.5794 
-6.08157 -12.7334 -43.3489 
-9.7039 -2.74882 -44.0391 
-3.19095 -6.12759 -39.3501 
-9.66301 1.20092 -41.9924 
-13.0136 1.122 -44.2119 
-20.0189 -28.9905 -39.3568 
-8.34899 -22.7764 -40.6883 
-3.04618 -15.9889 -39.471 
-2.26706 -12.8483 -38.5918 
-1.46174 -8.97347 -35.7521 
-5.87236 -2.28285 -40.4925 
-3.56153 -3.10774 -37.2223 
-5.87618 0.851704 -37.6037 
-13.1278 4.8364 -41.469 
-9.42165 4.73384 -37.9854 
0.131099 -12.8305 -33.0613 
0.000949 -16.2341 -33.3103 
-2.56422 -5.46957 -36.6146 
-3.09312 -5.57458 -33.7983 
-13.6587 7.94848 -38.1699 
-9.87418 7.88766 -33.2637 
-16.4646 8.36629 -38.5989 
-0.300522 -19.6206 -29.4192 
-1.832 -8.78581 -32.7544 
-6.92417 4.64946 -33.5436 
-5.44965 1.37642 -34.7095 
-9.60283 8.06267 -29.5798 
-10.2815 -29.3527 -30.8147 
0.054747 -19.7319 -26.0672 
1.79123 -12.595 -26.843 
0.125294 -16.2761 -30.0195 
0.27795 -12.4388 -30.3545 
-0.246555 -8.86322 -29.8948 
31.1337 2.12536 -26.9468 
30.0524 2.43616 -28.8539 
27.5453 -1.36466 -28.731 
-6.8484 4.46197 -30.9258 
-5.44727 4.5388 -27.5219 
27.6514 2.38406 -30.4937 
24.3397 4.83068 -30.2448 
27.6632 8.85905 -30.3233 
-13.3959 9.63585 -32.4856 
16.0881 12.373 -29.0273 
24.0072 8.56403 -30.5795 
20.5017 12.2349 -31.3373 
16.6379 16.36 -31.0764 
11.7611 18.9504 -28.7725 
19.6448 16.1853 -31.2224 
19.8292 20.1955 -28.2922 
13.1555 18.9905 -30.6277 
12.4035 21.6564 -28.814 
15.53 19.0607 -31.2552 
18.7128 18.7888 -30.005 
20.0297 -10.9034 -21.4853 
23.6152 -11.9753 -21.3838 
17.5489 -5.76564 -22.7178 
20.0536 -8.32157 -23.1789 
23.1811 -8.66058 -24.5597 
23.7721 -4.8686 -26.1176 
27.0931 -5.00684 -25.9281 
30.0097 -6.99438 -24.0043 
27.066 -9.14999 -23.4633 
20.8486 -1.97802 -24.261 
21.2108 -5.49376 -24.547 
30.0175 -4.8974 -26.1812 
33.7504 -4.25778 -21.9495 
32.3153 -4.05465 -24.0561 
19.8173 1.62879 -24.6922 
21.6521 1.91783 -27.2094 
24.071 -1.91182 -27.1419 
31.4858 -0.765737 -26.153 
34.017 -1.39942 -22.7087 
19.0714 4.77401 -25.0141 
-10.1645 8.69125 -25.7187 
19.7238 8.63264 -28.5691 
13.9059 12.7301 -24.791 
13.2213 15.7698 -29.4976 
10.9605 18.8524 -24.9868 
27.1589 14.7597 -27.5975 
26.8142 19.0176 -23.9925 
23.6506 18.8127 -27.0581 
2.26176 -16.9321 -23.6067 
19.275 -12.1452 -19.438 
21.2585 -13.4071 -20.7623 
12.7561 -9.32887 -21.4211 
13.0911 -5.65107 -22.1493 
35.0976 -0.45285 -21.054 
34.2416 -4.72917 -19.0344 
32.4232 2.25225 -24.9545 
33.3744 6.01245 -23.7921 
33.3381 8.93427 -23.6609 
16.9657 9.44543 -25.6799 
15.3788 12.3964 -20.7406 
35.0667 9.08955 -19.8901 
12.4434 15.5661 -24.6961 
12.9632 22.7519 -21.5658 
17.1208 25.3049 -21.3391 
3.20144 -17.0712 -21.077 
19.8767 -16.0404 -15.7937 
23.4937 -15.3347 -15.1991 
23.5516 -14.1751 -17.6865 
26.6972 -12.443 -19.2386 
16.993 -1.29548 -22.2621 
9.84778 -1.31463 -21.7488 
9.25938 1.56452 -19.9857 
13.2156 -1.44445 -22.1077 
2.18932 1.25985 -22.9653 
1.21177 4.37425 -21.1532 
5.25145 4.64221 -18.5745 
13.6789 0.933665 -20.8637 
35.9519 2.82395 -17.6024 
34.9178 2.23894 -21.3733 
35.1494 5.78783 -20.7469 
13.7435 4.46013 -18.3521 
16.5614 8.59855 -22.7178 
36.5161 5.95493 -17.5127 
15.8704 8.48029 -19.4617 
13.71 16.1954 -14.7644 
14.1931 12.7075 -15.0407 
13.0284 16.0642 -19.3794 
11.6267 19.3782 -15.3878 
11.6584 19.3908 -19.8317 
23.8616 24.5486 -17.9421 
29.0966 21.6102 -16.2666 
12.6675 22.3913 -17.0445 
1.95165 -18.7218 -16.259 
9.55505 -15.9162 -12.0332 
13.1599 -15.6621 -12.8169 
19.881 -17.5476 -11.7488 
27.6964 -12.5261 -15.2609 
23.2964 -15.6109 -12.0623 
25.0325 -14.3972 -14.8699 
2.00614 7.66052 -17.1146 
9.52279 5.26889 -16.5624 
36.292 8.79472 -16.6468 
27.0175 22.9666 -17.0893 
14.89 24.0397 -17.4373 
16.9388 25.1257 -17.5475 
19.6663 25.5358 -17.48 
6.09467 -16.5033 -11.5414 
27.2285 -12.5516 -12.0565 
34.6304 -5.68755 -11.775 
5.44009 8.91811 -14.1513 
-27.3969 -19.5966 -46.5448 
-27.0512 -21.4194 -45.7041 
-23.8551 -23.7108 -43.8565 
-23.7395 -27.3398 -40.4102 
-20.1875 -10.5977 -49.5193 
-20.1106 -16.4426 -48.2001 
-16.4484 -16.6998 -47.4128 
-12.8073 -13.1119 -47.3961 
-16.7762 -14.5397 -48.4204 
-14.7668 -13.202 -48.5451 
-15.8001 -10.1414 -48.5941 
-11.4365 -19.9451 -45.4781 
-16.1603 -12.9241 -48.3917 
-16.5222 1.63252 -45.3293 
-16.6298 -1.90017 -47.3237 
-16.5797 -0.05464 -46.5903 
-23.982 -0.238214 -46.8653 
-23.8083 2.08609 -44.7912 
-23.3184 4.17964 -43.3133 
-12.9276 -25.8809 -40.9984 
-13.2434 -24.3192 -42.633 
-8.89686 -19.6927 -43.7154 
-6.22996 -19.6703 -41.2562 
-7.37271 -19.5821 -42.627 
-4.87327 -16.0715 -41.2215 
-9.99379 -26.2183 -38.21 
-6.44006 -23.2368 -37.9542 
-10.6584 -25.3115 -40.1376 
-3.72276 -9.64857 -40.9956 
-5.83516 -9.59778 -43.3387 
-2.09448 -9.19209 -38.9856 
-16.6588 3.43893 -43.6897 
-20.2159 1.63954 -45.0063 
-16.6014 -29.3922 -37.5155 
-13.1411 -27.6577 -38.868 
-11.3735 -27.8074 -37.2522 
-12.9342 -30.0205 -34.2265 
-9.77478 -28.5794 -33.7734 
-9.81087 -27.5788 -35.6687 
-6.59248 -25.6185 -34.2803 
-7.96277 -27.3723 -33.6807 
-5.83214 -26.4784 -30.5099 
-7.84739 -26.2266 -35.911 
-7.7653 -24.9421 -37.5626 
-5.85516 -24.3114 -35.8456 
-4.64929 -24.103 -33.5558 
-2.50846 -22.398 -33.597 
-1.73566 -22.5387 -29.0263 
-4.27747 -22.5375 -35.6165 
-4.25568 -20.0907 -38.297 
-1.35611 -17.7695 -35.4276 
-2.12836 -19.1424 -35.9803 
-0.825349 -19.546 -32.5515 
-2.36606 -20.9188 -34.4713 
-0.881371 -19.5243 -34.0194 
-1.40523 -20.7386 -32.4979 
-0.667625 -21.2387 -25.4677 
-2.2 -23.3531 -24.8557 
0.904338 -19.8384 -22.5735 
1.36226 -16.2177 -26.5014 
3.95901 -12.2459 -24.4618 
4.37238 -13.8672 -22.7883 
-0.709281 -12.6915 -35.0729 
-0.42632 -11.3382 -32.7977 
1.76956 -8.80911 -26.9683 
-1.66446 -5.57887 -30.4388 
1.71307 -6.12439 -26.6322 
3.65724 -5.84479 -24.9199 
0.059371 -5.67915 -28.4142 
4.99764 -2.63529 -23.3614 
2.40427 -4.16163 -25.3536 
0.652009 -4.76382 -26.9274 
-3.48766 -25.5104 -25.5976 
-0.460164 -15.7307 -35.2371 
-2.83558 -18.158 -38.0875 
-1.48391 -15.8879 -36.8351 
-20.1362 5.71317 -41.4154 
-19.6899 9.0496 -37.3787 
-15.3167 9.93002 -35.215 
-16.9561 9.98377 -36.9016 
-13.0025 8.6714 -35.1936 
-8.009 6.08548 -30.1814 
-6.59281 7.15952 -24.0497 
-16.6327 6.67467 -41.2169 
-16.5277 5.14688 -42.467 
-13.1185 -28.4718 -37.4162 
-3.71566 -2.86294 -34.681 
-4.39684 -0.822529 -35.247 
-7.43037 -28.2418 -26.9051 
-5.452 -26.8633 -26.461 
-2.48802 -23.224 -21.1681 
20.5515 4.93544 -28.1165 
24.5595 2.18623 -29.4629 
22.1889 5.15733 -29.7542 
-2.94889 -3.15786 -30.9345 
-3.01134 -0.515703 -28.8653 
-5.51614 1.13429 -31.9017 
-0.968144 -2.96133 -27.7374 
0.585203 -2.30828 -26.2511 
-2.61123 1.767 -26.9478 
-1.392 -0.102676 -26.3407 
-4.12529 1.52166 -28.6745 
29.436 8.89878 -29.4682 
27.4708 5.41671 -29.9254 
31.2904 5.92515 -27.4303 
30.8888 9.07321 -27.5892 
30.216 12.0397 -26.7537 
32.6917 8.73837 -25.279 
32.542 12.2471 -23.3274 
24.5513 11.926 -31.0163 
24.0204 16.0789 -28.2967 
26.78 11.7689 -29.6415 
32.8666 14.1085 -20.3537 
33.8067 12.6154 -20.2668 
32.3102 16.7711 -17.3582 
31.4785 16.1258 -21.1688 
30.456 15.0543 -23.4869 
34.7059 12.5963 -16.6562 
29.934 18.5189 -21.0512 
30.5232 19.9773 -16.8606 
25.9305 22.2537 -21.5161 
19.6891 25.2119 -23.5909 
20.018 23.0856 -25.7129 
23.1243 22.2685 -24.3589 
23.0675 23.988 -21.7485 
19.7067 25.5902 -21.5804 
8.89206 8.42162 -14.611 
12.3616 8.77415 -13.8309 
23.8182 14.6834 -28.9072 
21.9956 16.4897 -29.6887 
16.0576 21.8989 -29.4159 
15.8108 20.4818 -30.1429 
15.9791 24.0719 -26.3082 
18.2067 21.629 -28.3292 
19.9098 22.0749 -27.3604 
29.9235 -11.2182 -15.6288 
31.3312 -9.39119 -15.7395 
31.3291 -8.97258 -12.0288 
30.7866 -9.1696 -20.0526 
34.7741 -5.39493 -15.9697 
33.2124 -7.72737 -15.007 
30.5355 -7.42655 -22.7242 
32.2967 -6.39235 -21.9521 
37.1476 5.46382 -13.9927 
36.9916 3.21743 -14.9595 
16.276 -16.5838 -12.8005 
20.1497 -9.64197 -21.9664 
18.4257 -7.98362 -23.3202 
18.6898 1.65791 -23.5093 
16.6931 1.55693 -21.9734 
16.7091 4.72722 -21.7824 
-4.79084 5.24506 -24.915 
-0.917665 1.44047 -24.9474 
-3.81736 6.57204 -21.3999 
-2.65305 3.56328 -24.7173 
-0.622554 5.60783 -21.4276 
-0.839788 6.99331 -19.3898 
-1.19697 7.94966 -17.719 
3.99212 -17.529 -12.52 
7.4469 -13.7698 -19.6188 
5.90734 -15.0743 -19.9075 
5.74437 -16.5727 -16.4913 
9.58015 -12.6379 -19.5317 
9.54171 -14.7536 -16.2933 
9.43626 -13.8678 -18.0817 
16.8577 -14.0583 -17.1736 
13.1139 -11.7418 -18.8486 
13.0193 -14.5276 -15.4488 
16.4629 -15.3655 -15.3601 
16.3747 -12.212 -18.5103 
17.128 -8.53545 -21.8812 
16.6152 -10.405 -20.0825 
18.8304 -9.9317 -21.2359 
8.77383 -10.752 -21.6065 
-1.42193 -20.9773 -17.3447 
5.9303 -13.986 -21.5691 
5.79234 -11.7625 -22.5278 
7.91693 -12.0053 -21.5952 
9.09374 -8.76773 -22.8069 
9.31634 -7.20347 -21.5338 
5.72423 -8.75814 -24.0854 
5.85707 -5.24132 -23.3871 
7.83279 -5.26156 -22.6609 
9.34828 -5.63771 -22.2025 
35.7703 -3.74096 -16.6821 
37.3245 0.134466 -15.2498 
35.8842 -0.60448 -18.4832 
2.16949 -2.46857 -24.5748 
2.37692 -0.574316 -23.6761 
5.7919 0.905712 -21.5234 
0.330718 -0.807042 -24.9821 
0.759633 0.907291 -24.6176 
-0.552683 3.42038 -23.8404 
29.591 20.3065 -19.3413 
28.7495 19.817 -21.3729 
3 182 0 1 
3 18 3 187 
3 14 187 3 
3 28 179 5 
3 28 5 7 
3 10 5 4 
3 5 179 4 
3 10 6 5 
3 7 5 6 
3 7 6 31 
3 177 9 4 
3 8 4 9 
3 10 4 182 
3 8 182 4 
3 10 182 6 
3 183 6 182 
3 183 11 6 
3 31 6 11 
3 31 11 33 
3 8 9 0 
3 12 0 9 
3 8 0 182 
3 184 13 11 
3 33 11 13 
3 33 13 34 
3 12 15 0 
3 16 0 15 
3 16 18 0 
3 184 14 13 
3 19 13 14 
3 21 206 34 
3 19 21 13 
3 34 13 21 
3 16 15 23 
3 16 23 18 
3 17 18 23 
3 17 3 18 
3 25 14 3 
3 19 14 27 
3 25 27 14 
3 19 27 21 
3 20 206 21 
3 20 21 27 
3 17 23 24 
3 22 24 23 
3 17 24 3 
3 191 3 24 
3 25 3 26 
3 191 26 3 
3 25 26 27 
3 35 27 26 
3 20 27 35 
3 35 26 38 
3 39 180 28 
3 39 28 29 
3 28 180 179 
3 29 28 7 
3 204 32 40 
3 30 7 31 
3 30 31 32 
3 198 32 31 
3 201 33 34 
3 201 34 42 
3 44 20 35 
3 36 20 44 
3 37 35 38 
3 44 35 37 
3 37 38 47 
3 210 39 29 
3 40 199 226 
3 226 203 40 
3 226 199 201 
3 41 201 42 
3 42 207 43 
3 239 42 43 
3 36 51 43 
3 43 207 36 
3 45 51 36 
3 45 36 44 
3 46 44 37 
3 45 44 46 
3 48 37 47 
3 46 37 48 
3 48 47 53 
3 239 49 50 
3 50 250 239 
3 43 51 52 
3 52 57 43 
3 45 263 52 
3 52 51 45 
3 58 59 46 
3 58 46 48 
3 53 257 54 
3 54 48 53 
3 58 48 54 
3 55 254 256 
3 55 256 53 
3 213 214 61 
3 56 229 50 
3 50 64 56 
3 50 49 65 
3 64 50 65 
3 52 242 66 
3 66 57 52 
3 52 263 271 
3 271 242 52 
3 58 70 273 
3 273 59 58 
3 75 60 54 
3 54 257 75 
3 236 62 56 
3 236 56 64 
3 65 63 236 
3 236 64 65 
3 241 63 65 
3 241 65 66 
3 103 102 269 
3 72 69 269 
3 69 103 269 
3 68 67 104 
3 72 68 69 
3 104 69 68 
3 273 70 71 
3 71 278 273 
3 72 269 280 
3 73 280 269 
3 72 280 68 
3 281 67 68 
3 281 68 280 
3 107 60 75 
3 73 77 280 
3 74 280 77 
3 108 76 78 
3 286 77 78 
3 77 108 78 
3 74 77 288 
3 286 288 77 
3 288 112 283 
3 76 110 79 
3 81 78 79 
3 78 76 79 
3 85 79 83 
3 80 83 110 
3 79 110 83 
3 81 79 86 
3 85 86 79 
3 86 82 114 
3 83 80 84 
3 84 307 308 
3 85 83 308 
3 83 84 308 
3 85 308 86 
3 236 115 235 
3 235 62 236 
3 90 323 324 
3 87 323 88 
3 90 91 323 
3 88 323 91 
3 88 91 95 
3 324 347 89 
3 90 324 97 
3 324 89 97 
3 90 97 91 
3 92 91 97 
3 92 93 91 
3 95 91 93 
3 98 94 93 
3 94 318 95 
3 94 95 93 
3 98 100 94 
3 89 96 97 
3 92 97 103 
3 97 96 103 
3 92 103 93 
3 69 93 103 
3 98 93 104 
3 69 104 93 
3 98 104 100 
3 105 99 100 
3 105 100 104 
3 101 102 96 
3 103 96 102 
3 104 67 122 
3 105 104 122 
3 102 101 106 
3 106 268 102 
3 122 67 281 
3 122 281 123 
3 106 125 108 
3 108 268 106 
3 125 109 76 
3 108 125 76 
3 128 110 109 
3 76 109 110 
3 293 283 112 
3 285 283 293 
3 110 128 111 
3 111 80 110 
3 287 114 112 
3 113 112 114 
3 293 112 113 
3 84 80 111 
3 309 307 84 
3 84 111 309 
3 113 114 300 
3 267 235 351 
3 235 115 131 
3 351 235 131 
3 116 87 117 
3 87 88 117 
3 116 117 134 
3 134 117 88 
3 134 88 135 
3 135 88 95 
3 135 95 315 
3 347 118 89 
3 118 119 89 
3 95 318 315 
3 119 136 89 
3 89 136 96 
3 105 120 121 
3 121 99 105 
3 137 246 366 
3 145 120 105 
3 145 105 122 
3 123 146 145 
3 145 122 123 
3 148 125 327 
3 106 327 125 
3 123 124 127 
3 127 146 123 
3 109 125 126 
3 125 148 126 
3 285 290 127 
3 127 124 285 
3 153 128 109 
3 153 109 126 
3 111 128 153 
3 155 111 153 
3 111 155 129 
3 111 129 309 
3 300 301 297 
3 297 113 300 
3 309 129 130 
3 159 351 131 
3 159 131 338 
3 131 337 338 
3 134 133 132 
3 134 132 116 
3 133 134 165 
3 135 163 165 
3 165 134 135 
3 139 119 137 
3 139 136 119 
3 138 137 366 
3 139 137 143 
3 137 138 143 
3 139 143 136 
3 326 136 143 
3 144 120 145 
3 140 141 366 
3 142 366 141 
3 138 366 142 
3 138 147 143 
3 326 143 327 
3 143 147 327 
3 146 149 144 
3 144 145 146 
3 142 141 166 
3 147 150 327 
3 150 148 327 
3 168 149 146 
3 168 146 127 
3 150 152 126 
3 126 148 150 
3 127 290 294 
3 168 127 294 
3 151 153 152 
3 126 152 153 
3 153 151 154 
3 154 155 153 
3 129 155 154 
3 158 129 154 
3 156 169 297 
3 297 301 156 
3 297 169 157 
3 129 158 170 
3 170 171 130 
3 129 170 130 
3 130 171 172 
3 301 172 156 
3 173 338 160 
3 338 340 160 
3 160 340 344 
3 344 161 160 
3 161 344 322 
3 344 345 322 
3 322 345 132 
3 132 162 322 
3 162 132 164 
3 132 133 164 
3 164 133 165 
3 165 163 174 
3 164 165 174 
3 144 321 362 
3 167 138 142 
3 138 167 147 
3 144 149 320 
3 320 321 144 
3 176 142 166 
3 167 142 176 
3 167 304 147 
3 147 304 150 
3 320 149 168 
3 150 304 152 
3 303 167 176 
3 303 304 167 
3 178 177 4 
3 178 4 179 
3 0 18 181 
3 1 181 187 
3 18 187 181 
3 185 183 182 
3 183 185 11 
3 186 184 11 
3 185 186 11 
3 184 186 14 
3 186 187 14 
3 198 188 33 
3 188 31 33 
3 31 188 198 
3 189 185 1 
3 189 186 185 
3 187 189 1 
3 186 189 187 
3 190 192 209 
3 192 191 24 
3 192 24 209 
3 191 192 26 
3 192 190 38 
3 26 192 38 
3 22 193 24 
3 193 194 209 
3 24 193 209 
3 194 195 209 
3 209 195 253 
3 30 197 7 
3 197 196 29 
3 7 197 29 
3 196 197 204 
3 197 30 32 
3 197 32 204 
3 200 199 40 
3 198 200 32 
3 32 200 40 
3 200 198 33 
3 199 200 201 
3 200 33 201 
3 220 202 204 
3 203 220 40 
3 220 204 40 
3 205 207 42 
3 206 205 34 
3 34 205 42 
3 205 206 20 
3 207 205 36 
3 205 20 36 
3 261 208 253 
3 208 190 209 
3 208 209 253 
3 190 208 38 
3 208 261 47 
3 38 208 47 
3 196 211 29 
3 29 211 210 
3 211 196 204 
3 202 212 204 
3 212 211 204 
3 202 215 212 
3 215 214 213 
3 212 215 213 
3 219 215 202 
3 220 219 202 
3 217 214 215 
3 217 219 216 
3 217 215 219 
3 214 217 61 
3 217 216 218 
3 61 217 218 
3 203 221 220 
3 219 221 216 
3 220 221 219 
3 222 216 221 
3 216 222 218 
3 222 223 224 
3 218 222 224 
3 225 223 222 
3 225 221 203 
3 225 222 221 
3 225 203 226 
3 41 251 201 
3 251 228 226 
3 201 251 226 
3 227 228 251 
3 227 250 50 
3 228 230 226 
3 225 230 223 
3 226 230 225 
3 231 230 228 
3 227 231 228 
3 229 231 50 
3 231 227 50 
3 232 223 230 
3 232 231 229 
3 232 230 231 
3 223 232 224 
3 232 229 56 
3 224 232 56 
3 233 234 224 
3 62 233 56 
3 233 224 56 
3 234 233 267 
3 233 62 235 
3 267 233 235 
3 63 237 236 
3 237 63 241 
3 353 237 357 
3 237 241 357 
3 238 115 236 
3 238 237 353 
3 238 236 237 
3 115 238 131 
3 240 49 239 
3 57 240 43 
3 240 239 43 
3 49 240 65 
3 240 57 66 
3 240 66 65 
3 245 243 241 
3 242 245 66 
3 66 245 241 
3 245 242 271 
3 244 358 357 
3 243 244 241 
3 241 244 357 
3 358 244 246 
3 248 243 245 
3 274 248 271 
3 248 245 271 
3 248 247 243 
3 247 244 243 
3 247 364 246 
3 244 247 246 
3 247 275 364 
3 274 275 248 
3 275 247 248 
3 249 266 218 
3 234 249 224 
3 249 218 224 
3 249 234 267 
3 252 250 227 
3 252 251 41 
3 252 227 251 
3 252 41 42 
3 250 252 239 
3 252 42 239 
3 255 257 53 
3 255 53 256 
3 257 255 75 
3 258 70 58 
3 60 258 54 
3 258 58 54 
3 70 258 71 
3 258 60 107 
3 258 107 71 
3 259 328 71 
3 259 71 107 
3 328 259 330 
3 55 260 254 
3 260 261 253 
3 260 253 254 
3 261 260 47 
3 260 55 53 
3 47 260 53 
3 211 262 210 
3 212 262 211 
3 210 262 213 
3 262 212 213 
3 264 263 45 
3 59 264 46 
3 264 45 46 
3 263 264 271 
3 264 59 273 
3 264 273 271 
3 266 265 218 
3 265 61 218 
3 270 73 269 
3 268 270 102 
3 270 269 102 
3 270 268 108 
3 73 270 77 
3 77 270 108 
3 272 274 271 
3 278 272 273 
3 272 271 273 
3 272 277 274 
3 277 275 274 
3 277 276 329 
3 278 276 272 
3 276 277 272 
3 276 278 71 
3 279 282 281 
3 74 279 280 
3 280 279 281 
3 279 74 288 
3 282 279 283 
3 279 288 283 
3 284 124 123 
3 282 284 281 
3 281 284 123 
3 284 282 283 
3 124 284 285 
3 284 283 285 
3 305 286 78 
3 286 305 288 
3 305 287 112 
3 288 305 112 
3 289 290 285 
3 292 289 293 
3 289 285 293 
3 290 289 294 
3 289 292 291 
3 289 291 294 
3 295 292 293 
3 295 293 113 
3 292 295 291 
3 370 296 291 
3 295 370 291 
3 296 370 157 
3 370 297 157 
3 298 299 309 
3 298 309 130 
3 299 298 300 
3 300 298 301 
3 302 298 130 
3 298 302 301 
3 302 130 172 
3 301 302 172 
3 305 306 287 
3 81 306 78 
3 78 306 305 
3 306 81 86 
3 287 306 114 
3 306 86 114 
3 310 82 86 
3 307 310 308 
3 310 86 308 
3 310 307 309 
3 299 311 309 
3 310 311 82 
3 309 311 310 
3 82 311 114 
3 311 299 300 
3 114 311 300 
3 312 163 135 
3 313 312 315 
3 312 135 315 
3 163 312 174 
3 312 313 314 
3 174 312 314 
3 317 313 315 
3 316 317 121 
3 317 315 121 
3 313 317 314 
3 317 316 175 
3 314 317 175 
3 319 318 94 
3 99 319 100 
3 319 94 100 
3 318 319 315 
3 319 99 121 
3 315 319 121 
3 87 349 323 
3 349 347 324 
3 323 349 324 
3 349 87 116 
3 325 101 96 
3 326 325 136 
3 325 96 136 
3 325 326 327 
3 101 325 106 
3 106 325 327 
3 331 329 276 
3 328 331 71 
3 331 276 71 
3 331 328 330 
3 332 369 330 
3 331 369 329 
3 330 369 331 
3 369 332 141 
3 333 332 330 
3 332 333 141 
3 141 333 166 
3 173 335 338 
3 335 159 338 
3 353 352 238 
3 352 337 131 
3 238 352 131 
3 336 337 352 
3 337 336 338 
3 339 341 336 
3 341 340 338 
3 336 341 338 
3 340 341 344 
3 341 339 343 
3 341 343 344 
3 346 342 343 
3 342 345 344 
3 343 342 344 
3 345 342 132 
3 342 346 116 
3 342 116 132 
3 347 348 118 
3 348 346 343 
3 118 348 343 
3 346 348 116 
3 349 348 347 
3 348 349 116 
3 355 350 357 
3 339 350 343 
3 350 355 118 
3 350 118 343 
3 354 339 336 
3 354 352 353 
3 354 336 352 
3 354 353 357 
3 339 354 350 
3 350 354 357 
3 356 355 357 
3 355 356 118 
3 118 356 119 
3 358 359 357 
3 357 359 356 
3 359 358 246 
3 359 246 137 
3 359 360 356 
3 356 360 119 
3 360 359 137 
3 119 360 137 
3 361 316 121 
3 361 121 120 
3 316 361 175 
3 175 361 362 
3 363 361 120 
3 144 363 120 
3 361 363 362 
3 363 144 362 
3 364 365 246 
3 365 140 366 
3 246 365 366 
3 367 364 275 
3 367 277 329 
3 367 275 277 
3 364 367 365 
3 365 368 140 
3 329 368 367 
3 367 368 365 
3 368 329 369 
3 140 368 141 
3 368 369 141 
3 371 295 113 
3 371 113 297 
3 371 370 295 
3 370 371 297 
3 185 182 1 
3 181 1 0 
